
<svg width="21" height="23" viewBox="0 0 21 23" fill="none" xmlns="http://www.w3.org/2000/svg">
<g clip-path="url(#clip0_307_3489)">
<path d="M19.0419 22.1401C18.839 22.1401 18.6444 22.0595 18.5009 21.9161C18.3575 21.7726 18.2769 21.578 18.2769 21.3751C18.2885 20.3465 18.096 19.3258 17.7104 18.3721C17.3248 17.4184 16.7539 16.5506 16.0306 15.819C15.3073 15.0875 14.4461 14.5068 13.4968 14.1104C12.5476 13.714 11.5291 13.5099 10.5004 13.5099C9.47167 13.5099 8.45314 13.714 7.50386 14.1104C6.55457 14.5068 5.69338 15.0875 4.9701 15.819C4.24683 16.5506 3.67587 17.4184 3.29029 18.3721C2.90472 19.3258 2.71222 20.3465 2.72389 21.3751C2.72389 21.4756 2.70404 21.5751 2.6656 21.6679C2.62716 21.7607 2.5708 21.845 2.49977 21.9161C2.42873 21.9871 2.34441 22.0435 2.2516 22.0819C2.15878 22.1204 2.05934 22.1401 1.95887 22.1401C1.85841 22.1401 1.7589 22.1204 1.66609 22.0819C1.57327 22.0435 1.48896 21.9871 1.41792 21.9161C1.34688 21.845 1.29053 21.7607 1.25209 21.6679C1.21364 21.5751 1.19386 21.4756 1.19386 21.3751C1.18111 20.1449 1.41243 18.9243 1.8744 17.784C2.33638 16.6437 3.01987 15.6063 3.88533 14.7318C4.75078 13.8573 5.781 13.1632 6.91645 12.6894C8.05191 12.2156 9.27005 11.9717 10.5004 11.9717C11.7307 11.9717 12.9488 12.2156 14.0842 12.6894C15.2197 13.1632 16.25 13.8573 17.1154 14.7318C17.9809 15.6063 18.6644 16.6437 19.1264 17.784C19.5883 18.9243 19.8196 20.1449 19.8068 21.3751C19.8068 21.578 19.7262 21.7726 19.5828 21.9161C19.4393 22.0595 19.2448 22.1401 19.0419 22.1401Z" fill="black"/>
<path d="M10.5013 11.4235C9.43561 11.4237 8.39383 11.1078 7.50765 10.5159C6.62146 9.92397 5.93068 9.08256 5.52272 8.09805C5.11477 7.11353 5.00793 6.03018 5.21572 4.98495C5.4235 3.93971 5.9366 2.97954 6.69008 2.22591C7.44357 1.47229 8.40361 0.959039 9.44881 0.751061C10.494 0.543082 11.5774 0.649743 12.562 1.05752C13.5466 1.46529 14.3881 2.15588 14.9802 3.04195C15.5723 3.92803 15.8883 4.9698 15.8883 6.03548C15.8867 7.46381 15.3187 8.83315 14.3088 9.84322C13.2989 10.8533 11.9296 11.4216 10.5013 11.4235ZM10.5013 2.17849C9.73817 2.17829 8.99216 2.40442 8.35756 2.82827C7.72296 3.25212 7.2283 3.8546 6.93618 4.55959C6.64405 5.26459 6.56756 6.04043 6.71639 6.7889C6.86522 7.53737 7.23269 8.22488 7.7723 8.76449C8.31191 9.3041 8.99941 9.67157 9.74788 9.8204C10.4964 9.96923 11.2722 9.89274 11.9772 9.60061C12.6822 9.30848 13.2847 8.81382 13.7085 8.17922C14.1324 7.54462 14.3585 6.79861 14.3583 6.03548C14.3572 5.01278 13.9506 4.03224 13.2275 3.30898C12.5044 2.58573 11.524 2.17878 10.5013 2.17745V2.17849Z" fill="black"/>
</g>
<defs>
<clipPath id="clip0_307_3489">
<rect width="18.613" height="21.493" fill="white" transform="translate(1.19434 0.647461)"/>
</clipPath>
</defs>
</svg>
