<svg width="21" height="21" viewBox="0 0 21 21" fill="none" xmlns="http://www.w3.org/2000/svg">
<path d="M20.0014 19.4825L17.1224 16.3775C18.7205 14.456 19.5135 11.9909 19.3354 9.49809C19.1573 7.00524 18.022 4.67786 16.167 3.00303C14.3121 1.3282 11.8812 0.435736 9.38317 0.512369C6.88515 0.589002 4.51359 1.62878 2.76476 3.41416C1.01594 5.19955 0.0254131 7.59215 0.000482244 10.0912C-0.0244486 12.5903 0.91812 15.0022 2.63098 16.8221C4.34383 18.642 6.69424 19.7289 9.19024 19.8554C11.6862 19.9818 14.1344 19.138 16.0224 17.5005L18.8474 20.5495C18.9904 20.6961 19.1849 20.7809 19.3896 20.7861C19.5942 20.7912 19.7928 20.7162 19.9429 20.577C20.0931 20.4378 20.1829 20.2455 20.1933 20.0411C20.2037 19.8366 20.1337 19.6362 19.9984 19.4825H20.0014ZM1.77142 10.3335C1.77142 8.75643 2.2391 7.21474 3.11529 5.90342C3.99148 4.5921 5.23684 3.57006 6.6939 2.96653C8.15096 2.363 9.75428 2.20506 11.3011 2.51274C12.8479 2.82041 14.2687 3.57986 15.3839 4.69505C16.4991 5.81023 17.2585 7.23107 17.5662 8.77787C17.8739 10.3247 17.716 11.928 17.1124 13.385C16.5089 14.8421 15.4868 16.0875 14.1755 16.9637C12.8642 17.8399 11.3225 18.3075 9.74542 18.3075C7.63114 18.3054 5.60406 17.4646 4.10894 15.9697C2.61383 14.4748 1.77276 12.4478 1.77038 10.3335H1.77142Z" fill="black"/>
</svg>