<svg width="49" height="49" viewBox="0 0 49 49" fill="none" xmlns="http://www.w3.org/2000/svg">
<rect x="0.437988" y="0.647461" width="48" height="48" rx="24" fill="#F2FD5D"/>
<g clip-path="url(#clip0_436_191)">
<path d="M34.1342 28.8387L32.6862 21.5907C32.5154 20.6676 32.0455 19.8265 31.3489 19.1973C30.6523 18.5681 29.7678 18.1859 28.8322 18.1097C28.8322 16.9182 28.3589 15.7755 27.5164 14.933C26.6739 14.0905 25.5311 13.6172 24.3397 13.6172C23.1482 13.6172 22.0055 14.0905 21.163 14.933C20.3205 15.7755 19.8472 16.9182 19.8472 18.1097C18.9117 18.1862 18.0274 18.5686 17.3308 19.1977C16.6343 19.8268 16.1642 20.6678 15.9932 21.5907L14.5452 28.8387C14.3904 29.5963 14.3996 30.3782 14.5721 31.132C14.7446 31.8857 15.0764 32.5938 15.5452 33.2087C15.995 33.8059 16.5769 34.2911 17.2452 34.6262C17.9136 34.9614 18.6505 35.1374 19.3982 35.1407H29.2772C30.0248 35.1373 30.7615 34.9611 31.4298 34.6257C32.098 34.2904 32.6796 33.8051 33.1292 33.2077C33.599 32.5935 33.9318 31.8857 34.1051 31.1321C34.2785 30.3785 34.2884 29.5965 34.1342 28.8387ZM24.3402 15.2317C25.1023 15.2517 25.8295 15.5554 26.3795 16.0835C26.9294 16.6116 27.2624 17.326 27.3132 18.0867H21.3672C21.4182 17.3259 21.7514 16.6115 22.3015 16.0834C22.8515 15.5554 23.5789 15.2517 24.3412 15.2317H24.3402ZM31.9631 32.2097C31.6499 32.6259 31.2447 32.9641 30.7791 33.1978C30.3134 33.4315 29.8001 33.5543 29.2792 33.5567H19.4001C18.8791 33.5542 18.3657 33.4313 17.8999 33.1976C17.4342 32.964 17.0287 32.6258 16.7152 32.2097C16.3878 31.7815 16.1559 31.2883 16.0352 30.7631C15.9144 30.2378 15.9076 29.6928 16.0151 29.1647L17.4622 21.9167C17.5748 21.2969 17.8977 20.735 18.3764 20.3256C18.8552 19.9163 19.4604 19.6846 20.0902 19.6697H28.5842C29.216 19.6827 29.8237 19.9141 30.3041 20.3247C30.7845 20.7353 31.1079 21.2996 31.2192 21.9217L32.6672 29.1697C32.7738 29.6972 32.7662 30.2414 32.645 30.7658C32.5237 31.2902 32.2916 31.7825 31.9642 32.2097H31.9631Z" fill="black"/>
<path d="M21.5209 21.7373C21.258 21.7373 21.0011 21.8153 20.7825 21.9613C20.564 22.1073 20.3937 22.3149 20.2931 22.5577C20.1925 22.8006 20.1661 23.0678 20.2174 23.3256C20.2687 23.5834 20.3953 23.8202 20.5812 24.006C20.7671 24.1919 21.0038 24.3185 21.2616 24.3698C21.5194 24.421 21.7866 24.3947 22.0295 24.2941C22.2723 24.1935 22.4799 24.0232 22.6259 23.8047C22.772 23.5861 22.8499 23.3291 22.8499 23.0663C22.8499 22.7138 22.7099 22.3758 22.4606 22.1266C22.2114 21.8774 21.8734 21.7373 21.5209 21.7373Z" fill="black"/>
<path d="M27.0702 21.7373C26.8074 21.7373 26.5504 21.8153 26.3318 21.9613C26.1133 22.1073 25.943 22.3149 25.8424 22.5577C25.7418 22.8006 25.7155 23.0678 25.7667 23.3256C25.818 23.5834 25.9446 23.8202 26.1305 24.006C26.3163 24.1919 26.5531 24.3185 26.8109 24.3698C27.0687 24.421 27.3359 24.3947 27.5788 24.2941C27.8216 24.1935 28.0292 24.0232 28.1752 23.8047C28.3212 23.5861 28.3992 23.3291 28.3992 23.0663C28.3992 22.7138 28.2591 22.3758 28.0099 22.1266C27.7607 21.8774 27.4227 21.7373 27.0702 21.7373Z" fill="black"/>
</g>
<defs>
<clipPath id="clip0_436_191">
<rect width="19.803" height="21.493" fill="white" transform="translate(14.438 13.6475)"/>
</clipPath>
</defs>
</svg>