<?xml version="1.0" encoding="UTF-8"?>
<svg id="Layer_2" data-name="Layer 2" xmlns="http://www.w3.org/2000/svg" viewBox="0 0 92.3 90.43">
  <defs>
    <style>
      .cls-1 {
        stroke: #58a35f;
      }

      .cls-1, .cls-2, .cls-3, .cls-4, .cls-5, .cls-6 {
        fill: #fff;
      }

      .cls-1, .cls-3, .cls-4, .cls-5, .cls-6 {
        stroke-linecap: round;
        stroke-linejoin: round;
        stroke-width: 2px;
      }

      .cls-7 {
        fill: #e76a4a;
      }

      .cls-7, .cls-8, .cls-9, .cls-10, .cls-11, .cls-12, .cls-13, .cls-14, .cls-15, .cls-16, .cls-17, .cls-18, .cls-19, .cls-20, .cls-21, .cls-22, .cls-23, .cls-24, .cls-25, .cls-26, .cls-27, .cls-28, .cls-29, .cls-30, .cls-31, .cls-32, .cls-33, .cls-34, .cls-35, .cls-36, .cls-37, .cls-38, .cls-39, .cls-40, .cls-41, .cls-42, .cls-43, .cls-44, .cls-45, .cls-46, .cls-47, .cls-48, .cls-49, .cls-50, .cls-51, .cls-52, .cls-53, .cls-54, .cls-55, .cls-56, .cls-57, .cls-58, .cls-59, .cls-60, .cls-61, .cls-62, .cls-63, .cls-64, .cls-65, .cls-66, .cls-67, .cls-68, .cls-69, .cls-70, .cls-71, .cls-72, .cls-73, .cls-74, .cls-75, .cls-76, .cls-77, .cls-78, .cls-79, .cls-80, .cls-81, .cls-82, .cls-83, .cls-84, .cls-85, .cls-86, .cls-87, .cls-88, .cls-89, .cls-90, .cls-91, .cls-92, .cls-93, .cls-94, .cls-95, .cls-96, .cls-97, .cls-98, .cls-99, .cls-100, .cls-101 {
        stroke: #fff;
        stroke-miterlimit: 10;
        stroke-width: .25px;
      }

      .cls-8 {
        fill: #a15e7e;
      }

      .cls-9 {
        fill: #65abaa;
      }

      .cls-10 {
        fill: #d3ca6a;
      }

      .cls-11 {
        fill: #d25b3a;
      }

      .cls-102 {
        fill: #25326d;
      }

      .cls-12 {
        fill: #385a76;
      }

      .cls-13 {
        fill: #e3a343;
      }

      .cls-14, .cls-103 {
        fill: #407090;
      }

      .cls-104, .cls-75 {
        fill: #fcdd57;
      }

      .cls-15, .cls-105 {
        fill: #334173;
      }

      .cls-16 {
        fill: #eeaf59;
      }

      .cls-106 {
        fill: #9db9cd;
      }

      .cls-17 {
        fill: #ec9558;
      }

      .cls-18 {
        fill: #51a29f;
      }

      .cls-19 {
        fill: #a73f38;
      }

      .cls-20 {
        fill: #ffd553;
      }

      .cls-21 {
        fill: #437163;
      }

      .cls-22 {
        fill: #292030;
      }

      .cls-23 {
        fill: #ee9d50;
      }

      .cls-24 {
        fill: #eb7d2c;
      }

      .cls-25 {
        fill: #7b9358;
      }

      .cls-26 {
        fill: #c8a62d;
      }

      .cls-27 {
        fill: #ffd758;
      }

      .cls-28 {
        fill: #82bc89;
      }

      .cls-29 {
        fill: #eb7e4d;
      }

      .cls-30, .cls-107 {
        fill: #38706c;
      }

      .cls-31 {
        fill: #866090;
      }

      .cls-32 {
        fill: #ec652e;
      }

      .cls-33 {
        fill: #13181d;
      }

      .cls-34 {
        fill: #fee65a;
      }

      .cls-35 {
        fill: #613d30;
      }

      .cls-36 {
        fill: #4e2737;
      }

      .cls-108 {
        fill: #bddef5;
      }

      .cls-37 {
        fill: #46262e;
      }

      .cls-38 {
        fill: #4c9489;
      }

      .cls-39 {
        fill: #2b2543;
      }

      .cls-40 {
        fill: #1e142c;
      }

      .cls-41 {
        fill: #303940;
      }

      .cls-42 {
        fill: #57a98c;
      }

      .cls-43 {
        fill: #5eaa9b;
      }

      .cls-44 {
        fill: #394a85;
      }

      .cls-45 {
        fill: #de814c;
      }

      .cls-46 {
        fill: #2966a4;
      }

      .cls-47 {
        fill: #3480bc;
      }

      .cls-48 {
        fill: #509c86;
      }

      .cls-49 {
        fill: #cc994f;
      }

      .cls-50 {
        fill: #6e8a76;
      }

      .cls-51 {
        fill: #3f8f94;
      }

      .cls-3 {
        stroke: #f7941d;
      }

      .cls-4 {
        stroke: #efd154;
      }

      .cls-52 {
        fill: #609194;
      }

      .cls-5 {
        stroke: #2d7b93;
      }

      .cls-53 {
        fill: #b98e65;
      }

      .cls-54 {
        fill: #f5ac55;
      }

      .cls-55 {
        fill: #cddf9f;
      }

      .cls-56 {
        fill: #db7459;
      }

      .cls-57 {
        fill: #3f8c7e;
      }

      .cls-58 {
        fill: #417fb5;
      }

      .cls-59 {
        fill: #85828f;
      }

      .cls-6 {
        stroke: #825ca6;
      }

      .cls-60 {
        fill: #ee7946;
      }

      .cls-109 {
        opacity: .26;
      }

      .cls-109, .cls-110 {
        fill: #0f113a;
      }

      .cls-61 {
        fill: #7cb385;
      }

      .cls-62 {
        fill: #f1aa4f;
      }

      .cls-63 {
        fill: #417c82;
      }

      .cls-64 {
        fill: #2e5a97;
      }

      .cls-65 {
        fill: #509885;
      }

      .cls-66 {
        fill: #63a580;
      }

      .cls-67 {
        fill: #f4a95e;
      }

      .cls-68 {
        fill: #5aa79a;
      }

      .cls-69 {
        fill: #b79433;
      }

      .cls-70 {
        fill: #365d9c;
      }

      .cls-71 {
        fill: #7167a0;
      }

      .cls-72 {
        fill: #fff1c3;
      }

      .cls-73 {
        fill: #d28042;
      }

      .cls-74 {
        fill: #ea835c;
      }

      .cls-76 {
        fill: #e28e50;
      }

      .cls-111, .cls-83 {
        fill: #35466a;
      }

      .cls-77 {
        fill: #d8a848;
      }

      .cls-78 {
        fill: #4f9890;
      }

      .cls-79 {
        fill: #f3b04b;
      }

      .cls-112 {
        fill: #f7941d;
      }

      .cls-80 {
        fill: #347ba1;
      }

      .cls-81 {
        fill: #d97763;
      }

      .cls-82 {
        fill: #97c485;
      }

      .cls-84 {
        fill: #4a7c8b;
      }

      .cls-85 {
        fill: #ad4e3c;
      }

      .cls-86 {
        fill: #bb7f3d;
      }

      .cls-87 {
        fill: #f7b137;
      }

      .cls-88 {
        fill: #ca6d55;
      }

      .cls-89 {
        fill: #fbdd59;
      }

      .cls-90 {
        fill: #d05944;
      }

      .cls-91 {
        fill: #1e1232;
      }

      .cls-92 {
        fill: #3275b5;
      }

      .cls-93 {
        fill: none;
      }

      .cls-94 {
        fill: #cac8c3;
      }

      .cls-95 {
        fill: #f1b157;
      }

      .cls-96 {
        fill: #3e6057;
      }

      .cls-97 {
        fill: #f0b25a;
      }

      .cls-98 {
        fill: #965173;
      }

      .cls-99 {
        fill: #fdcf58;
      }

      .cls-100 {
        fill: #ffd74a;
      }

      .cls-101 {
        fill: #334970;
      }
    </style>
  </defs>
  <g id="Layer_1-2" data-name="Layer 1">
    <g>
      <path class="cls-109" d="M57.58,46.55c-1.81,4.6-5,1.54-5.55,5.35-.43,2.97-5.39,.88-4.59-4.53,.85-5.76-.23-6.51,4.71-7.38,3.67-.65,6.53,3.77,5.43,6.56Z"/>
      <g>
        <circle class="cls-110" cx="42.71" cy="47.43" r="37.64"/>
        <g>
          <path class="cls-43" d="M66.04,19.3s-.02,0-.03-.01c-1.94-.31-3.78-4.43-4.2-9.59-.08-.99-.1-1.95-.08-2.85l-.03,.21-4.46-.6-1.62,1.62c1.41,.59,2.63,1.37,3.44,2.24,3.91,4.23,3.74,10.17,2.22,14.5-1.28,3.63-4.66,8.61-14.68,7.74-1.76-.15-6.23-2.18-10.74-7.07v-5.77l-6.36-1.68h-.01c-.15,.3-.3,.6-.45,.9-.22,.44-.42,.88-.62,1.32-.16,.35-.32,.7-.47,1.05-.08,.19-.16,.38-.24,.57-.12,.28-.24,.57-.35,.85-.11,.28-.22,.57-.33,.85-.07,.2-.15,.39-.22,.59-.07,.18-.13,.36-.2,.53-.1,.27-.2,.53-.29,.8-.16,.44-.31,.87-.45,1.29-.01,.02-.02,.05-.03,.07-.11,.32-.21,.63-.31,.93-.17,.49-.33,.97-.48,1.44-.62,1.87-1.15,3.5-1.66,4.69-.07,.17-.14,.33-.21,.48,0,0,1.38,2.93,3.16,4.46,2.47-.87,5.66-1.73,9.17-2.42,1.15-.23,2.27-.42,3.35-.59,.35-.05,.7-.1,1.05-.15,.14-.02,.27-.04,.4-.05,.58-.08,1.15-.15,1.7-.21,.15-.02,.3-.03,.44-.04,.3-.03,.6-.06,.89-.08,.14-.02,.27-.03,.4-.03,.31-.03,.61-.05,.9-.06,.1-.01,.2-.01,.29-.02,.73-.03,1.4-.04,2.02-.03,.5,0,.95,.03,1.36,.06h0c.35-.05,.68-.1,.99-.14,2.4-.34,3.9-.51,5.17-.78,1.58-.34,2.8-.84,4.91-2.02,1.24-.7,1.84-2.58,2.49-4.18,.34-.83,.7-1.59,1.17-2.07,.42-.42,1.11-.63,1.65-.74,.43-.08,.71-.48,.64-.91-.2-1.26,.07-4.43,.47-4.89,.07-.08,.15-.16,.23-.21Zm-35.32,13.93c-.67,.77-1.62,1.04-2.12,.61s-.36-1.41,.31-2.18c.66-.77,1.61-1.04,2.11-.61,.5,.44,.37,1.41-.3,2.18Z"/>
          <path class="cls-93" d="M26.61,24.7c.06-.18,.13-.35,.19-.53,.08-.19,.15-.39,.23-.59"/>
          <path class="cls-93" d="M28.42,20.26c-.17,.35-.32,.7-.47,1.05"/>
          <path class="cls-82" d="M50.82,1.44V6.44l-.15,.53c-1.04-.04-2.04,.08-2.9,.39l-3.84-2.12c-1-.9-1.99-1.79-2.99-2.68,.32-.1,.64-.2,.96-.3,2.26-.68,5.59-.82,8.92-.82Z"/>
          <path class="cls-93" d="M43.93,5.24c-.35,.08-.7,.18-1.03,.29"/>
          <path class="cls-93" d="M42.71,5.59c-.21,.06-.41,.13-.61,.21"/>
          <path class="cls-93" d="M40.47,6.47c-.27,.12-.53,.26-.78,.39"/>
          <path class="cls-93" d="M38.69,7.43c-.13,.07-.25,.15-.38,.24"/>
          <path class="cls-93" d="M36.94,8.64c-.29,.22-.57,.44-.84,.69"/>
          <path class="cls-93" d="M32.79,12.83h-.01c-.03,.05-.07,.1-.11,.15-.26,.34-.52,.69-.76,1.04-.13,.18-.25,.36-.36,.54"/>
          <path class="cls-51" d="M59.06,10.32c-.81-.87-2.03-1.65-3.44-2.24-1.55-.65-3.31-1.07-4.95-1.11-1.04-.04-2.04,.08-2.9,.39-.09,.03-.17,.06-.25,.09-1.53,.63-6.92,4.6-8.71,7.65-.02,.04-.05,.08-.07,.11-1.51,2.58-1.88,3.18-2.88,4.51v5.77c4.51,4.89,8.98,6.92,10.74,7.07,10.02,.87,13.4-4.11,14.68-7.74,1.52-4.33,1.69-10.27-2.22-14.5Zm-5.29,19.85c-7.66,2.24-16.75-3.66-16.28-6.59,.74-4.61,4.87-12.55,12.72-14.1,3.36-.66,8.49,2.56,10.04,6.94,1.92,5.43-1.38,12.26-6.48,13.75Z"/>
          <path class="cls-72" d="M60.25,16.42c-1.55-4.38-6.68-7.6-10.04-6.94-7.85,1.55-11.98,9.49-12.72,14.1-.47,2.93,8.62,8.83,16.28,6.59,5.1-1.49,8.4-8.32,6.48-13.75Zm-8.52,11.83c-6.22,0-8.6-3.94-8.57-8.74,.03-3.96,3.28-8.12,7.57-8.08,4.05,.04,6.95,3.81,7.39,7.45,.64,5.13-1.97,9.37-6.39,9.37Z"/>
          <path class="cls-22" d="M51.73,28.25c-6.22,0-8.6-3.94-8.57-8.74,.03-3.96,3.28-8.12,7.57-8.08,4.05,.04,6.95,3.81,7.39,7.45,.64,5.13-1.97,9.37-6.39,9.37Z"/>
          <path class="cls-33" d="M30.72,33.23c-.67,.77-1.62,1.04-2.12,.61s-.36-1.41,.31-2.18c.66-.77,1.61-1.04,2.11-.61,.5,.44,.37,1.41-.3,2.18Z"/>
          <path class="cls-12" d="M48.31,35.24c-.09,.01-.18,.03-.27,.04,0,0-.96,.07-2.58,.26-.16,.02-.32,.04-.49,.06-.15,.02-.3,.04-.46,.06-.06,0-.11,.01-.17,.02-.58,.08-1.21,.17-1.89,.28-.02,0-.05,0-.08,.01-.53,.08-1.09,.18-1.68,.29-.41,.07-.84,.15-1.27,.24-.87,.16-1.78,.35-2.72,.57-.7,.16-1.42,.34-2.15,.53-.48,.13-.97,.26-1.47,.4-3.01,.85-6.21,1.93-6.21,1.93-.7,.23-1.27,.43-1.65,.56l1.11-1.59,.02-.03h-.01c2.47-.88,5.66-1.74,9.17-2.43,1.15-.23,2.27-.42,3.35-.59,.35-.05,.7-.1,1.05-.15,.14-.02,.27-.04,.4-.05,.58-.08,1.15-.15,1.7-.21,.15-.02,.3-.03,.44-.04,.3-.03,.6-.06,.89-.08,.14-.02,.27-.03,.4-.03,.31-.03,.61-.05,.9-.06,.1-.01,.2-.01,.29-.02,.73-.03,1.4-.04,2.02-.03,.5,0,.95,.03,1.36,.06Z"/>
          <path class="cls-34" d="M25.05,29.23c-.62,1.87-1.15,3.5-1.66,4.69-.07,.17-.14,.33-.21,.48l-3.29-.79c.64-1.3,1.11-2.78,1.52-4.38h3.64Z"/>
          <path class="cls-57" d="M26.35,38.87l-.02,.03-1.11,1.59-.71-.92-4.62-5.96,3.29,.79s1.38,2.93,3.16,4.46h.01Z"/>
          <path class="cls-99" d="M43.93,5.24c-.35,.08-.7,.18-1.03,.29-.07,.02-.13,.04-.19,.06-.21,.06-.41,.13-.61,.21-.07,.02-.13,.04-.2,.07-.24,.08-.47,.17-.7,.28-.24,.1-.47,.2-.7,.31-.01,0-.02,0-.03,.01-.27,.12-.53,.25-.78,.39l-4.3-1.94c1.62-.88,3.46-1.68,5.55-2.36,1,.89,1.99,1.78,2.99,2.68Z"/>
          <path class="cls-100" d="M39.69,6.86c-.34,.18-.68,.37-1,.57-.13,.08-.26,.16-.38,.24-.05,.03-.1,.06-.15,.11-.17,.1-.34,.21-.5,.33-.25,.17-.49,.35-.72,.53-.29,.22-.57,.45-.84,.69l-4.92-1.54c1.21-1.03,2.6-1.99,4.2-2.87h.01l4.3,1.94Z"/>
          <path class="cls-27" d="M36.1,9.33c-.33,.28-.66,.58-.97,.88-.13,.12-.25,.24-.36,.36-.15,.14-.29,.29-.43,.44-.3,.31-.58,.63-.86,.96-.01,.01-.02,.03-.03,.04-.21,.24-.41,.49-.6,.74-.02,.02-.04,.05-.06,.08-.04,.05-.08,.1-.12,.15-.26,.34-.51,.69-.75,1.04h-.01l-5.38-.76c1.16-1.95,2.66-3.8,4.65-5.47l4.92,1.54Z"/>
          <path class="cls-20" d="M31.92,14.02c-.12,.18-.25,.36-.37,.54-.13,.18-.25,.36-.36,.54-.62,.96-1.18,1.94-1.69,2.94h-.01c-.15,.3-.3,.6-.45,.9h-5.05c.64-1.93,1.44-3.85,2.54-5.68l5.38,.76h.01Z"/>
          <path class="cls-89" d="M29.04,18.94c-.22,.44-.42,.88-.62,1.32-.16,.35-.32,.7-.47,1.05-.08,.19-.16,.38-.24,.57-.12,.28-.24,.57-.35,.85-.11,.28-.22,.57-.33,.85-.07,.2-.15,.39-.22,.59h-4.23c.4-1.71,.83-3.47,1.41-5.23h5.05Z"/>
          <path class="cls-75" d="M26.81,24.17c-.07,.18-.13,.36-.2,.53-.1,.27-.2,.53-.29,.8-.16,.44-.31,.87-.45,1.29-.01,.02-.02,.05-.03,.07-.11,.32-.21,.63-.31,.93-.17,.49-.33,.97-.48,1.44h-3.64c.41-1.59,.77-3.3,1.17-5.06h4.23Z"/>
          <path class="cls-101" d="M54.48,34.32c-.1,1.63-4.29,3.9-13.21,4.91-9.65,1.09-13.65,2.75-13.65,2.75-.01-.09-.01-.18,0-.27,.27-1.64,4.64-3.8,14.2-5.43,1.32-.23,2.53-.48,3.64-.74,1.62-.19,2.58-.26,2.58-.26,.09-.01,.18-.03,.27-.04h0c.35-.05,.68-.1,.99-.14,2.4-.34,3.9-.51,5.17-.78Z"/>
          <path class="cls-95" d="M57.24,1.5V6.44h-6.42V1.44c2.26,0,4.51,.07,6.42,.06Z"/>
          <path class="cls-68" d="M57.24,6.44v.02l-1.62,1.62c-1.55-.65-3.31-1.07-4.95-1.11l.15-.53h6.42Z"/>
          <path class="cls-23" d="M63.17,.65c-.36,.55-.66,1.29-.89,2.16-.31,1.14-.5,2.52-.55,4.04l-.03,.21-4.46-.6V1.5c.23,0,.46,0,.67-.01,1.73-.01,3.1-.1,3.83-.38,.27-.1,.54-.2,.81-.28,.21-.07,.42-.13,.62-.18Z"/>
          <path class="cls-61" d="M38.74,15.21c-1.51,2.58-1.88,3.18-2.88,4.51l-6.36-1.68c.51-1,1.07-1.98,1.69-2.94,.11-.18,.23-.36,.36-.54,.12-.18,.25-.36,.37-.54,.24-.35,.49-.7,.75-1.04,.04-.05,.08-.1,.12-.15l5.95,2.38Z"/>
          <line class="cls-93" x1="32.79" y1="12.83" x2="32.78" y2="12.83"/>
          <path class="cls-28" d="M47.77,7.36c-.09,.03-.17,.06-.25,.09-1.53,.63-6.92,4.6-8.71,7.65-.02,.04-.05,.08-.07,.11l-5.95-2.38s.04-.06,.06-.08c.19-.25,.39-.5,.6-.74,.01-.01,.02-.03,.03-.04,.28-.33,.56-.65,.86-.96,.14-.15,.28-.3,.43-.44,.11-.12,.23-.24,.36-.36,.31-.3,.64-.6,.97-.88,.27-.24,.55-.47,.84-.69,.23-.18,.47-.36,.72-.53,.16-.12,.33-.23,.5-.33,.05-.05,.1-.08,.15-.11,.12-.08,.25-.16,.38-.24,.32-.2,.66-.39,1-.57,.25-.14,.51-.27,.78-.39,.01-.01,.02-.01,.03-.01,.23-.11,.46-.21,.7-.31,.23-.1,.46-.19,.7-.28,.07-.03,.13-.05,.2-.07,.2-.08,.4-.15,.61-.21,.06-.02,.12-.04,.19-.06,.33-.11,.68-.2,1.03-.29l3.84,2.12Z"/>
          <path class="cls-83" d="M61.88,28.12c-.1,3.15-.2,7.24-4.3,10.04-1.1,.76-2.48,1.42-4.23,1.94-.02-.01-.03-.03-.04-.03v.05c-.64,.19-1.32,.36-2.06,.51h-.01l-.02-.03s.01,.02,.01,.03c-.69,.15-1.43,.28-2.22,.39-1.85,.25-3.98,.39-6.42,.41-2.81,.02-9.31,4.43-14.98,1.04-.3-.18-.28-.44,.01-.76-.01,.09-.01,.18,0,.27,0,0,4-1.66,13.65-2.75,8.92-1.01,13.11-3.28,13.21-4.91,1.58-.34,2.8-.84,4.91-2.02,1.24-.7,1.84-2.58,2.49-4.18Z"/>
          <path class="cls-81" d="M72.63,1.45c-1.81,.98-2.96,2.85-3.67,5.01-.79,2.38-1.06,5.11-1.11,7.4-.04,1.82,.05,3.37,.12,4.23,.04,.47,.07,.73,.07,.73-.24,.07-.5,.09-.77,.11-.37,.03-.76,.06-1.11,.29-.04,.02-.08,.05-.12,.08-1.95-.28-3.81-4.41-4.23-9.6-.08-.99-.1-1.95-.08-2.85,.05-1.52,.24-2.9,.55-4.04,.23-.87,.53-1.61,.89-2.16,1.11-.31,2.15-.46,3.1-.51,3.87-.2,6.36,1.31,6.36,1.31Z"/>
          <path class="cls-67" d="M70.87,15.88l-2.46,9.94-2.76-1.47c-.3-1.8,.02-3.51,.5-5.08,0-.02,.01-.03,.01-.05,.35-.23,.74-.26,1.11-.29,.27-.02,.53-.04,.77-.11,0,0-.03-.26-.07-.73-.07-.86-.16-2.41-.12-4.23,.76,.43,1.81,1.13,3.02,2.02Z"/>
          <path class="cls-40" d="M65.86,28.56c.28-1.15,.34-2.17,.08-3-.13-.41-.23-.81-.29-1.21l2.76,1.47-2.55,2.74Z"/>
          <path class="cls-63" d="M71.18,27.74c-1.44,3.22-3.35,7-6.57,13.15-.08,.16-.16,.32-.24,.48-.88,1.88-1.1,3.53-1.54,5.24-1.65-.88-2.86-1.63-2.91-1.63,0-.01-.01-.03-.01-.04-.43-1.13,.01-2.82,.81-4.76,1.5-3.63,4.28-8.17,5.13-11.61h.01s2.55-2.75,2.55-2.75c.78,.16,1.75,.98,2.77,1.92Z"/>
          <path class="cls-16" d="M74.56,18.85c-1.15,3.43-2.06,5.93-3.38,8.89-1.02-.94-1.99-1.76-2.77-1.92l2.46-9.94c1.13,.83,2.39,1.84,3.69,2.97Z"/>
          <path class="cls-97" d="M78.65,22.73c-.4,1.3-.87,2.59-1.39,3.86-.6,1.47-1.27,2.91-1.99,4.34-1.24-.43-2.71-1.93-4.09-3.19,1.32-2.96,2.23-5.46,3.38-8.89,1.37,1.18,2.78,2.5,4.09,3.88Z"/>
          <path class="cls-30" d="M71.23,44.41c-1.8,1.48-3.12,3-3.75,4.26-1.58-.52-3.27-1.34-4.65-2.06,.44-1.71,.66-3.36,1.54-5.24,.76,1.1,2.81,2.66,4.28,.65,.97,.64,1.82,1.47,2.58,2.39Z"/>
          <path class="cls-17" d="M87.3,38.64c-3.19-.16-6.35,.55-9.2,1.72-1.6-1.98-3.48-3.96-5.17-4.8,2.1-.7,3.11-3.19,12.03-3.37,.89,2,1.7,4.09,2.34,6.45Z"/>
          <path class="cls-54" d="M84.96,32.19c-8.92,.18-9.93,2.67-12.03,3.37-.08,.03-.17,.06-.26,.08,.04-.05,.07-.11,.1-.16,.88-1.49,1.72-3.01,2.5-4.55,.72-1.43,1.39-2.87,1.99-4.34,1.37-.27,2.72-.05,4.08-.76,1.06,1.37,1.95,2.74,2.58,4.08,.35,.75,.7,1.51,1.04,2.28Z"/>
          <path class="cls-79" d="M81.34,25.83c-1.36,.71-2.71,.49-4.08,.76,.52-1.27,.99-2.56,1.39-3.86,.97,1.01,1.88,2.05,2.69,3.1Z"/>
          <path class="cls-66" d="M74.64,49.96c-1.81,.6-3.76,.12-5.01,.37-.21-.28-.43-.54-.65-.76h0c-.4-.4-.81-.69-1.25-.82-.08-.03-.17-.05-.25-.08,.63-1.26,1.95-2.78,3.75-4.26,1.36,1.65,2.43,3.63,3.41,5.55Z"/>
          <path class="cls-29" d="M88.44,45.18c-3.02-.35-5.02-.21-6.47,.19-.08,.02-.16,.04-.24,.07-.49-.75-1.89-2.92-3.63-5.08,2.85-1.17,6.01-1.88,9.2-1.72,.52,1.96,.93,4.1,1.14,6.54Z"/>
          <path class="cls-42" d="M76.88,54.24h-.01c-2.05,1.58-2.67,1.15-3.96,1.37-1.33-2.04-2.3-3.97-3.28-5.28,1.25-.25,3.2,.23,5.01-.37,.77,1.52,1.49,3.01,2.24,4.28Z"/>
          <path class="cls-8" d="M88.6,50.56c-.01,.29-.03,.66-.07,1.12-4.26-.36-5.89-.68-7.65-.01,.1-.1,.21-.2,.33-.29,1.55-1.19,.48-4.03,.69-5.68,.02-.12,.04-.23,.07-.33,1.45-.4,3.45-.54,6.47-.19,.15,1.64,.21,3.43,.16,5.38Z"/>
          <path class="cls-31" d="M88.26,56.47c0,.35,0,.68,.01,1-3.61-.1-7.93-.68-8.73-.22,.96-1.03-.32-3.87,1.34-5.58,1.76-.67,3.39-.35,7.65,.01-.09,1.12-.24,2.73-.27,4.79Z"/>
          <path class="cls-18" d="M79.5,57.27c-.05,.04-.1,.08-.16,.14-.12,.11-.26,.27-.41,.46-.53,.71-1.18,1.85-1.72,2.77-.02-.02-.05-.04-.07-.06-1.78-1.53-3.11-3.25-4.19-4.91-.01-.02-.03-.04-.04-.06,1.29-.22,1.91,.21,3.96-1.36h.01c.8,1.33,1.62,2.4,2.62,3.02Z"/>
          <path class="cls-71" d="M89.22,62.18c-2.39,.35-4.19,1.26-5.75,1.34-1.19-1.77-2.69-3.66-4.54-5.65,.15-.19,.29-.35,.41-.46,.06-.06,.11-.1,.16-.14h.02s0,0,.01,0c0,0,0-.01,.01-.01,.8-.46,5.12,.12,8.73,.22,.05,1.85,.36,3.08,.95,4.71Z"/>
          <path class="cls-58" d="M90.62,65.87c-2.06,.45-3.69,1.01-5.1,1.14-.54-1.11-1.22-2.27-2.05-3.49,1.56-.08,3.36-.99,5.75-1.34,.33,.91,.75,1.95,1.26,3.29,.05,.14,.1,.27,.14,.4Z"/>
          <path class="cls-85" d="M85.52,67.01c-.33,.02-.64,.02-.94,0-.61-.04-1.69-.07-2.77-.03h-.01c-.18-.29-.41-.61-.67-.98-.72-1.03-1.24-1.86-1.69-2.56,1.2-.29,2.91,.04,3.5,.08,.17,.01,.35,.02,.53,0,.83,1.22,1.51,2.38,2.05,3.49Z"/>
          <path class="cls-47" d="M91.78,69.74c-2.22,.45-3.43,1-4.76,1.12-.32-1.19-.81-2.48-1.5-3.85,1.41-.13,3.04-.69,5.1-1.14,.51,1.35,.9,2.64,1.16,3.87Z"/>
          <path class="cls-92" d="M92.11,74.47c-2.22,.21-3.31-.27-4.62-.52-.02-.95-.17-1.98-.47-3.09,1.33-.12,2.54-.67,4.76-1.12,.36,1.66,.49,3.22,.33,4.73Z"/>
          <path class="cls-32" d="M87.49,73.95c-.27-.05-.56-.1-.86-.12-.69-.05-1.1-.13-2.02-.09-.02-.97-.26-1.97-.65-2.96,.98-.05,1.38,.03,2.09,.08,.34,.03,.66,.02,.97,0,.3,1.11,.45,2.14,.47,3.09Z"/>
          <path class="cls-7" d="M87.49,73.95c.03,1.09-.1,2.07-.38,2.92t-.02-.01c-.59-.2-1.7-.75-2.79-.96,.24-.7,.34-1.42,.31-2.16,.92-.04,1.33,.04,2.02,.09,.3,.02,.59,.07,.86,.12Z"/>
          <path class="cls-46" d="M92.11,74.47c-.05,.48-.12,.94-.23,1.41-.07,.31-.38,1.44-1.01,2.8-2.31-.18-2.01-1.23-3.76-1.81,.28-.85,.41-1.83,.38-2.92,1.31,.25,2.4,.73,4.62,.52Z"/>
          <path class="cls-70" d="M90.87,78.68c-.54,1.18-1.3,2.52-2.34,3.67-2.02-.65-1.36-1.69-2.91-2.92,.65-.66,1.18-1.52,1.49-2.56,1.75,.58,1.45,1.63,3.76,1.81Z"/>
          <path class="cls-60" d="M87.11,76.87c-.31,1.04-.84,1.9-1.49,2.56-.06-.05-.12-.1-.19-.15-.49-.35-1.13-1.34-1.98-1.8,.38-.51,.66-1.04,.85-1.58,1.09,.21,2.2,.76,2.79,.96t.02,.01Z"/>
          <path class="cls-74" d="M85.62,79.43c-.66,.69-1.45,1.17-2.32,1.44-.28-.56-.64-1.48-1.21-2.02,.11-.07,.22-.16,.32-.25,.41-.36,.75-.74,1.04-1.12,.85,.46,1.49,1.45,1.98,1.8,.07,.05,.13,.1,.19,.15Z"/>
          <path class="cls-64" d="M88.53,82.35c-.78,.86-1.71,1.6-2.81,2.07-.02,.01-.04,.02-.06,.02-1.34-.75-1.08-1.51-2.22-3.32-.04-.07-.09-.15-.14-.25,.87-.27,1.66-.75,2.32-1.44,1.55,1.23,.89,2.27,2.91,2.92Z"/>
          <path class="cls-44" d="M85.66,84.44c-1.5,.64-2.89,.96-4.17,1.04-.76-1.14-.97-2.62-1.16-3.6-.04-.22-.04-.54-.04-.89,1.04,.22,2.07,.18,3.01-.12,.05,.1,.1,.18,.14,.25,1.14,1.81,.88,2.57,2.22,3.32Z"/>
          <path class="cls-98" d="M83.3,80.87c-.94,.3-1.97,.34-3.01,.12,0-.49-.01-1.03-.17-1.41,.71-.08,1.39-.31,1.97-.73,.57,.54,.93,1.46,1.21,2.02Z"/>
          <path class="cls-9" d="M79.17,79.57c-.06,.28-.21,.62-.36,.93-.69-.31-1.36-.75-1.99-1.32,.06-.09,.11-.18,.15-.27,.68,.37,1.44,.6,2.2,.66Z"/>
          <path class="cls-36" d="M78.81,80.5c-.14,.3-.28,.58-.35,.79-.34,.98-1.26,2.25-1.18,3.58-.49-.18-.94-.4-1.36-.63-.02,0-.03-.02-.04-.03-.72-.68-1.33-1.45-1.83-2.27,.74-.78,1.84-1.46,2.28-2.02,.14-.19,.33-.45,.49-.74,.63,.57,1.3,1.01,1.99,1.32Z"/>
          <path class="cls-15" d="M81.49,85.48c-1.58,.12-2.98-.13-4.21-.61-.08-1.33,.84-2.6,1.18-3.58,.07-.21,.21-.49,.35-.79,.49,.23,.99,.39,1.48,.49,0,.35,0,.67,.04,.89,.19,.98,.4,2.46,1.16,3.6Z"/>
          <path class="cls-41" d="M75.88,84.21c-.87-.49-1.62-1.09-2.25-1.72,.11-.19,.26-.37,.42-.55,.5,.82,1.11,1.59,1.83,2.27Z"/>
          <path class="cls-35" d="M74.05,81.94c-.16,.18-.31,.36-.42,.55-.81-.79-1.42-1.64-1.85-2.4-.1-.18-.2-.38-.29-.6,.31-.18,.74-.32,1.2-.43,.32,.95,.77,1.94,1.36,2.88Z"/>
          <path class="cls-37" d="M72.69,79.06c-.46,.11-.89,.25-1.2,.43-.33-.73-.6-1.64-.75-2.64,.4-.14,.86-.22,1.33-.28,.1,.73,.3,1.59,.62,2.49Z"/>
          <path class="cls-45" d="M72.07,76.57c-.47,.06-.93,.14-1.33,.28-.1-.61-.16-1.26-.16-1.91,.45-.16,.96-.25,1.49-.31-.04,.21-.06,.4-.07,.54-.03,.38-.01,.85,.07,1.4Z"/>
          <path class="cls-25" d="M72.74,72.5c-.36,.77-.57,1.56-.67,2.13-.53,.06-1.04,.15-1.49,.31,0-1.04,.14-2.11,.47-3.11,.36,.19,.98,.43,1.69,.67Z"/>
          <path class="cls-50" d="M73.82,70.89c-.46,.47-.81,1.04-1.08,1.61-.71-.24-1.33-.48-1.69-.67,.23-.72,.56-1.41,1.02-2.03,.44,.27,1.1,.69,1.75,1.09Z"/>
          <path class="cls-73" d="M76.97,78.91c-.04,.09-.09,.18-.15,.27-.16,.29-.35,.55-.49,.74-.44,.56-1.54,1.24-2.28,2.02-.59-.94-1.04-1.93-1.36-2.88,.88-.22,1.86-.38,2.39-.69,.18-.1,.37-.3,.53-.54,.02,.02,.04,.05,.06,.07,.37,.4,.82,.74,1.3,1.01Z"/>
          <path class="cls-49" d="M75.61,77.83c-.16,.24-.35,.44-.53,.54-.53,.31-1.51,.47-2.39,.69-.32-.9-.52-1.76-.62-2.49,.99-.12,2.02-.13,2.64-.25,.2,.53,.48,1.05,.9,1.51Z"/>
          <path class="cls-77" d="M74.71,76.32c-.62,.12-1.65,.13-2.64,.25-.08-.55-.1-1.02-.07-1.4,0-.14,.03-.33,.07-.54,.81-.09,1.63-.12,2.23-.19,.04,.55,.15,1.22,.41,1.88Z"/>
          <path class="cls-26" d="M74.3,74.44c-.6,.07-1.42,.1-2.23,.19,.1-.57,.31-1.36,.67-2.13,.5,.16,1.04,.33,1.58,.48-.02,.09-.02,.17-.03,.25-.01,.18-.04,.63,.01,1.21Z"/>
          <path class="cls-10" d="M74.93,71.53c-.32,.49-.53,1.01-.61,1.45-.54-.15-1.08-.32-1.58-.48,.27-.57,.62-1.14,1.08-1.61,.39,.24,.77,.46,1.11,.64Z"/>
          <path class="cls-94" d="M75.98,70.43c-.42,.3-.77,.69-1.05,1.1-.34-.18-.72-.4-1.11-.64,.42-.44,.95-.8,1.58-1,.2,.2,.4,.39,.58,.54Z"/>
          <path class="cls-59" d="M77.33,69.79c-.51,.12-.96,.34-1.35,.64-.18-.15-.38-.34-.58-.54,.55-.18,1.19-.23,1.93-.1Z"/>
          <path class="cls-52" d="M82.11,76.49c-.89,.81-2.08,1.53-4.23,.82-1.84-.6-2.29-3.45-1.16-4.7,.64-.71,1.04-.91,2.08-.74,.73,.11,1.51,1.6,.62,2.32-.42,.34,.07-.99-.9-1.09-.52-.06-.55,.16-.69,.21-.17,.07-.37,1.19,.06,1.62,.54,.53,1.87,.93,2.53,.38,1.13-.93,1.12-3.13,.07-4.55-.52-.71-.98-1.16-2.61-1.05-.19,.01-.38,.04-.55,.08-.44-.66-.95-1.88-1.54-2.57,1.85-.56,3.95-.4,5.62,1.06,2.29,1.99,2.68,6.4,.7,8.21Z"/>
          <path class="cls-96" d="M77.33,69.79c-.74-.13-1.38-.08-1.93,.1-.57-.56-1.22-1.2-1.77-1.6,.64-.46,1.38-.83,2.16-1.07,.59,.69,1.1,1.91,1.54,2.57Z"/>
          <path class="cls-21" d="M75.4,69.89c-.63,.2-1.16,.56-1.58,1-.65-.4-1.31-.82-1.75-1.09,.24-.34,.53-.66,.86-.96,.22-.2,.45-.39,.7-.55,.55,.4,1.2,1.04,1.77,1.6Z"/>
          <line class="cls-93" x1="65.65" y1="24.35" x2="65.55" y2="24.3"/>
          <path class="cls-48" d="M81.73,45.44c-3.19,.99-3.67,3.34-7.02,4.5-.02,.01-.05,.02-.07,.02-.98-1.92-2.05-3.9-3.41-5.55,1.86-1.51,4.23-2.98,6.87-4.05,1.74,2.16,3.14,4.33,3.63,5.08Z"/>
          <path class="cls-78" d="M81.21,51.38c-.12,.09-.23,.19-.33,.29-1.08,.41-2.2,1.2-4,2.57-.75-1.27-1.47-2.76-2.24-4.28,.02,0,.05,0,.07-.02,3.35-1.16,3.83-3.51,7.02-4.5,.08-.03,.16-.05,.24-.07-.03,.1-.05,.21-.07,.33-.21,1.65,.86,4.49-.69,5.68Z"/>
          <path class="cls-38" d="M75.27,30.93c-.78,1.54-1.62,3.06-2.5,4.55-.03,.05-.06,.11-.1,.16-1.24,2.13-2.57,4.21-3.91,6.23-.03,.05-.07,.1-.11,.15-1.47,2.01-3.52,.45-4.28-.65,.08-.16,.16-.32,.24-.48,3.22-6.15,5.13-9.93,6.57-13.15,1.38,1.26,2.85,2.76,4.09,3.19Z"/>
          <path class="cls-65" d="M78.1,40.36c-2.64,1.07-5.01,2.54-6.87,4.05-.76-.92-1.61-1.75-2.58-2.39,.04-.05,.08-.1,.11-.15,1.34-2.02,2.67-4.1,3.91-6.23,.09-.02,.18-.05,.26-.08,1.69,.84,3.57,2.82,5.17,4.8Z"/>
          <path class="cls-93" d="M81.91,45.71h-.01"/>
          <path class="cls-84" d="M79.54,57.25s-.01,.01-.01,.01c-.01,0-.01,0-.01,0h-.02c-1-.62-1.82-1.69-2.62-3.03,1.8-1.37,2.92-2.16,4-2.57-1.66,1.71-.38,4.55-1.34,5.58Z"/>
          <path class="cls-19" d="M83.47,63.52c-.18,.02-.36,.01-.53,0-.59-.04-2.3-.37-3.5-.08-.78-1.21-1.31-2.02-2.23-2.8,.54-.92,1.19-2.06,1.72-2.77,1.85,1.99,3.35,3.88,4.54,5.65Z"/>
          <path class="cls-11" d="M87.02,70.86c-.31,.02-.63,.03-.97,0-.71-.05-1.11-.13-2.09-.08-.22-.57-.49-1.14-.8-1.7-.12-.21-.36-.65-1.35-2.1,1.08-.04,2.16-.01,2.77,.03,.3,.02,.61,.02,.94,0,.69,1.37,1.18,2.66,1.5,3.85Z"/>
          <path class="cls-56" d="M80.29,80.99c-.49-.1-.99-.26-1.48-.49,.15-.31,.3-.65,.36-.93,.32,.03,.63,.03,.95,0,.16,.38,.17,.92,.17,1.41Z"/>
          <path class="cls-39" d="M59.91,44.94c-.73,.23-1.74-.02-2.75-.54,.2-.63-.84-1.81-2.56-3.23-.47-.38-.88-.75-1.25-1.07,1.75-.52,3.13-1.18,4.23-1.94,.82,.15,2.33,.6,3.14,2.02-.8,1.94-1.24,3.63-.81,4.76Z"/>
          <path class="cls-90" d="M54.58,44.88h0c-.13,.07-.26,.17-.36,.3-.02,.03-.05,.07-.08,.11-.21,.05-.48,.03-.8-.05h-.01s-.02-.03-.04-.05c-.15-.12-.35-.18-.55-.16h-.01c-.46-.2-.97-.51-1.5-.91h0c-.18-.13-.37-.28-.55-.45-.11-.09-.22-.19-.33-.29-.82-.76-1.21-1.62-1.34-2.36,.79-.11,1.53-.24,2.22-.39,.29,.74,.87,1.6,1.79,2.36,.58,.48,1.15,.86,1.66,1.14,.07,.24,.05,.48-.1,.75Z"/>
          <path class="cls-80" d="M57.16,44.4c-.01,.06-.04,.11-.08,.16-.33,.39-1.24,.23-2.4-.43-.51-.28-1.08-.66-1.66-1.14-.92-.76-1.5-1.62-1.79-2.36h.02c.74-.15,1.42-.32,2.06-.51,.02-.01,.03-.01,.04-.02,.37,.32,.78,.69,1.25,1.07,1.72,1.42,2.76,2.6,2.56,3.23Z"/>
          <path class="cls-13" d="M51.18,45.21c-.25,.44-.73,.66-1.14,.56-.02-.21-.12-.39-.28-.52-.11-.09-.25-.15-.39-.16-.06-.27-.02-.57,.14-.85,.25-.45,.75-.68,1.17-.57,.18,.17,.37,.32,.55,.44h0c.17,.33,.16,.74-.05,1.1Z"/>
          <path class="cls-55" d="M53.22,46.81c-.45,.55-1.15,.73-1.56,.39-.42-.34-.39-1.06,.06-1.61,.29-.35,.66-.55,1.01-.56h.01c.2-.02,.4,.04,.55,.16,.02,.02,.04,.03,.04,.05h.01c.36,.36,.32,1.04-.12,1.57Z"/>
          <path class="cls-14" d="M55.32,46.71c-.71-.09,1.12,2.15,.32,2.02-2.52-.42-1.95-2.71-1.5-3.44,.03-.04,.06-.08,.08-.11,.1-.13,.23-.23,.36-.29h0c.73-.38,1.77,.18,2.13,.92,.44,.89,.25,1.08-1.39,.9Z"/>
          <path class="cls-86" d="M50.05,48.67c-.8-.25-.13,4.07-.13,4.07-2.79-.93-2.11-4.25-1.75-4.87,.09-.15,.2-.3,.33-.45,.39,.06,.87-.14,1.2-.55,.16-.19,.26-.4,.31-.6,.61-.31,1.16-.37,1.27,.07,.59,2.37,.8,2.96-1.23,2.33Z"/>
          <path class="cls-69" d="M50.01,46.27c-.05,.2-.15,.41-.31,.6-.33,.41-.81,.61-1.2,.55-.14-.02-.26-.07-.37-.16-.42-.34-.39-1.06,.06-1.61,.34-.41,.8-.61,1.18-.56,.14,.01,.28,.07,.39,.16,.16,.13,.26,.31,.28,.52,.03,.16,.02,.32-.03,.5Z"/>
          <path class="cls-62" d="M72.37,65.93c-.61,.7-1.18,1.47-1.84,2.06-1.86-.48-2.18-.61-3.21-1.32,.08-.44,.33-1.01,.45-1.27,.13-.32,.27-.47,.8-1.37,1.65,.97,2.01,1.2,3.8,1.91Z"/>
          <path class="cls-53" d="M67.52,73.19c.63-3.07-.7-2.48-1.63-2.04,0-.75,.91-.72,1.1-1.43,.18-.69,.3-1.9,.3-3.01,0-.05,.06-.08,.11-.05,.95,.65,1.32,.97,3.14,1.32-.56,.71-1.2,.4-1.28,1.23-.27,2.72-2.16,6.06-1.73,3.97Z"/>
          <path class="cls-87" d="M72.95,55.67h-2.61c-.39-.92-.71-1.87-1.02-2.76-.22-.64-.53-2.32-.34-3.34,.22,.22,.44,.48,.65,.76,.98,1.31,1.95,3.24,3.28,5.28,.01,.02,.03,.04,.04,.06Z"/>
          <path class="cls-24" d="M77.14,60.58c-2.14,0-3.79-.68-4.86-1.79-.85-.86-1.46-1.97-1.94-3.12h2.61c1.08,1.66,2.41,3.38,4.19,4.91Z"/>
          <path class="cls-88" d="M77.14,60.58s-1.43,1.12-2.6,2.72c-2.54-1.07-2.2-.99-3.83-2.13,.53-.59,1.04-1.29,1.88-2.08,1.34,.91,2.41,1.48,4.55,1.48Z"/>
          <path class="cls-93" d="M68.98,49.57h0"/>
          <path class="cls-76" d="M74.54,63.3c-.62,.85-1.38,1.72-2.17,2.63-2.21-.8-2.47-1.22-3.8-1.91,.5-.69,.92-1.64,2.14-2.84,1.62,1.18,1.33,1.1,3.83,2.13Z"/>
          <path class="cls-91" d="M65.94,25.56c.26,.83,.2,1.85-.08,3h-.01c-.85,3.45-3.63,7.99-5.13,11.62-.81-1.42-2.32-1.87-3.14-2.02,4.1-2.8,4.2-6.89,4.3-10.04,.34-.83,.7-1.59,1.17-2.07,.42-.42,1.11-.63,1.65-.74,.43-.08,.71-.48,.64-.91-.2-1.26,.07-4.43,.47-4.89,.07-.08,.15-.16,.23-.21-.01,0-.02,0-.03-.01l.14-.02c-.48,1.57-.8,3.28-.5,5.08,.06,.4,.16,.8,.29,1.21Z"/>
          <line class="cls-93" x1="66.01" y1="19.29" x2="65.98" y2="19.3"/>
          <path class="cls-103" d="M46.56,22.12c1.27-1.51,3.09-2.45,5.06-2.59,2.84-.2,3.68-.55,4.1-1.59,.65-1.62-2.99-4.56-5.75-4.25-1.14,.13,.7,3-.71,4.36-1.05,1.01-2.94-1.14-3.2,.05-.37,1.67-.75,4.38-.18,4.38,.08,0,.17,.25,.68-.36Z"/>
          <path class="cls-102" d="M48.47,21.14c1.52-.17,2.5-.12,2.72,.16,.31,.4,.68,.45,1.71,.25,1.6-.3,4.3-1.61,3.88-1.96-.17-.15-2.88,.86-4.25,.97-1.02,.09,.98-.75-.18-.49-1.64,.36-4.28,.97-4.25,1.06,0,.01-.24,.09,.38,.02Z"/>
          <path class="cls-106" d="M46.18,22.12c.4-.92,.97-1.49,1.59-1.57,.89-.12,1.15-.33,1.29-.96,.2-.98-.94-2.77-1.8-2.57-.36,.08,.22,1.82-.22,2.64-.33,.61-.92-.69-1,.03-.12,1.01-.24,2.66-.06,2.65,.02,0,.05,.15,.21-.22Z"/>
          <path class="cls-111" d="M51.87,24.49c-.37,1.67-5.72-.83-5.15-.83,.08,0,2.53,3.45,3.04,2.84,1.27-1.51,1.86-.47,3.83-.61,2.84-.2,3.24-4.35,3.66-5.39,.65-1.62-2.62,3.68-5.38,3.99"/>
          <circle class="cls-108" cx="51.23" cy="14.98" r=".4"/>
          <path class="cls-108" d="M52.91,15.33c.4,.25,.63,.61,.52,.79s-.33-.21-.73-.46-.85-.27-.73-.46,.54-.13,.94,.12Z"/>
        </g>
        <path class="cls-109" d="M57.51,46.97c-1.81,4.6-7.17,0-6.6,4.79,.35,2.98-4.27,1.29-3.47-4.13,.85-5.76-.23-6.51,4.71-7.38,3.67-.65,6.46,3.93,5.36,6.72Z"/>
        <path class="cls-109" d="M77.21,60.87c.12,.13-3.54,2.86-6.16,8.37-2.48,5.2-6.33,8.24-6.11,.56,.21-7.19,2.61-20.87,4.34-20.23,1.05,.39,1.25,3.69,7.92,11.3Z"/>
      </g>
      <g>
        <path class="cls-6" d="M10.49,22.66s3.9-6.56,11.18-9.4"/>
        <path class="cls-4" d="M1.07,47.04s-.83-7.59,3.27-14.23"/>
        <path class="cls-3" d="M9.44,71.65s-5.56-5.23-6.74-12.95"/>
        <path class="cls-1" d="M31.59,87.7s-7.57-.96-13.08-6.51"/>
        <path class="cls-5" d="M59.67,85.79s-6.37,4.2-14.16,3.58"/>
        <circle class="cls-107" cx="12.46" cy="75.91" r=".96"/>
        <circle class="cls-112" cx="66.82" cy="79.86" r=".96"/>
        <circle class="cls-105" cx="1.57" cy="52.54" r=".96"/>
        <circle class="cls-104" cx="6.07" cy="28.87" r=".96"/>
      </g>
      <g>
        <g>
          <path class="cls-2" d="M27.4,67.2c-.08-.09-.17-.17-.28-.24-.11-.07-.23-.13-.36-.19-.13-.05-.28-.1-.43-.13-.15-.03-.31-.05-.48-.05-.5,0-.86,.09-1.09,.28s-.35,.45-.35,.77c0,.22,.05,.4,.16,.53,.11,.13,.28,.23,.52,.31,.23,.08,.53,.16,.9,.25,.41,.08,.75,.19,1.05,.3,.29,.12,.52,.28,.68,.48s.24,.47,.24,.81c0,.26-.05,.49-.15,.68-.1,.19-.24,.35-.42,.48-.18,.13-.4,.22-.65,.28-.25,.06-.53,.09-.82,.09s-.58-.03-.84-.09c-.27-.06-.52-.15-.76-.27-.24-.12-.46-.27-.67-.46l.28-.46c.1,.11,.22,.21,.36,.3,.14,.09,.3,.18,.47,.25,.17,.07,.36,.13,.56,.17s.41,.06,.62,.06c.45,0,.81-.08,1.06-.25,.25-.17,.38-.41,.38-.73,0-.23-.06-.42-.19-.56s-.32-.26-.58-.35-.57-.18-.94-.26c-.39-.09-.73-.19-1-.3-.27-.11-.48-.26-.61-.44-.14-.18-.2-.43-.2-.73,0-.35,.09-.65,.26-.89,.17-.24,.41-.43,.72-.55,.3-.12,.65-.19,1.05-.19,.25,0,.48,.03,.7,.08s.42,.12,.6,.22c.18,.1,.36,.22,.52,.36l-.27,.45Z"/>
          <path class="cls-2" d="M30.75,71.89c-.3,0-.58-.06-.83-.17-.25-.11-.47-.27-.66-.47-.18-.2-.33-.43-.43-.68s-.15-.53-.15-.82,.05-.57,.15-.83c.1-.26,.25-.48,.43-.68,.19-.2,.41-.35,.66-.47,.25-.11,.53-.17,.83-.17s.57,.06,.82,.17c.25,.11,.47,.27,.66,.47,.19,.2,.33,.43,.43,.68,.1,.26,.15,.53,.15,.83s-.05,.56-.15,.82-.24,.49-.43,.68c-.18,.2-.4,.36-.66,.47-.25,.11-.53,.17-.84,.17Zm-1.51-2.13c0,.31,.07,.59,.2,.84,.14,.25,.32,.45,.55,.6,.23,.15,.48,.22,.76,.22s.53-.07,.76-.22c.23-.15,.41-.35,.55-.61s.21-.54,.21-.84-.07-.59-.21-.84c-.14-.25-.32-.46-.55-.6s-.48-.22-.76-.22-.53,.08-.76,.23c-.23,.15-.41,.36-.55,.61s-.21,.53-.21,.85Z"/>
          <path class="cls-2" d="M34.02,71.81v-3.74h-.58v-.43h.58v-.11c0-.34,.05-.63,.15-.88,.1-.25,.24-.43,.42-.56,.18-.13,.4-.2,.65-.2,.17,0,.33,.02,.48,.07,.16,.05,.29,.11,.4,.19l-.17,.39c-.07-.06-.16-.1-.27-.14-.11-.03-.22-.05-.34-.05-.25,0-.44,.1-.58,.3-.14,.2-.2,.48-.2,.86v.13h1.15v.43h-1.15v3.74h-.54Z"/>
          <path class="cls-2" d="M38.61,71.65s-.11,.05-.2,.09c-.09,.04-.2,.08-.33,.11-.13,.03-.27,.05-.42,.05s-.3-.03-.44-.09c-.14-.06-.24-.15-.32-.27-.08-.12-.12-.27-.12-.45v-3h-.58v-.43h.58v-1.41h.54v1.41h.96v.43h-.96v2.85c.01,.15,.07,.26,.16,.34,.1,.08,.21,.11,.34,.11,.15,0,.29-.03,.41-.08,.12-.05,.2-.09,.22-.11l.14,.44Z"/>
          <path class="cls-2" d="M44.69,67.66h.54l-1.79,4.15h-.47l-.87-2.06-.86,2.06h-.47l-1.79-4.15h.53l1.52,3.59,.77-1.87-.7-1.71h.49l.53,1.35,.54-1.35h.48l-.7,1.71,.77,1.87,1.51-3.59Z"/>
          <path class="cls-2" d="M45.66,70.62c0-.26,.07-.48,.22-.67,.15-.19,.36-.33,.62-.44,.26-.1,.57-.16,.92-.16,.2,0,.41,.02,.63,.05,.22,.03,.41,.08,.58,.14v-.35c0-.35-.1-.63-.31-.83-.21-.21-.5-.31-.86-.31-.22,0-.44,.04-.66,.12-.22,.08-.44,.2-.68,.36l-.21-.38c.27-.19,.54-.33,.8-.42,.26-.09,.53-.14,.8-.14,.51,0,.92,.15,1.22,.44s.45,.69,.45,1.21v1.92c0,.07,.02,.13,.05,.16,.03,.03,.08,.05,.15,.06v.43c-.06,0-.11,.01-.15,.02s-.07,0-.1,0c-.13,0-.23-.05-.3-.13-.07-.08-.11-.17-.11-.26v-.3c-.19,.24-.44,.43-.74,.56-.3,.13-.6,.2-.91,.2-.27,0-.51-.06-.72-.17-.22-.11-.38-.27-.5-.46-.12-.19-.18-.41-.18-.64Zm2.79,.32c.06-.07,.1-.15,.14-.21,.03-.07,.05-.13,.05-.18v-.6c-.18-.07-.37-.12-.56-.16-.19-.04-.39-.06-.59-.06-.39,0-.7,.08-.94,.23-.24,.15-.36,.36-.36,.63,0,.15,.04,.3,.12,.43s.2,.25,.35,.33c.16,.09,.34,.13,.54,.13,.26,0,.51-.05,.73-.15,.23-.1,.4-.23,.52-.39Z"/>
          <path class="cls-2" d="M52.58,68.13c-.36,.01-.68,.11-.96,.3-.27,.19-.47,.46-.58,.79v2.59h-.54v-4.15h.51v.98c.14-.29,.33-.53,.57-.71s.49-.28,.76-.3c.05,0,.1,0,.14,0s.07,0,.1,0v.5Z"/>
          <path class="cls-2" d="M55.13,71.89c-.3,0-.58-.06-.83-.17-.26-.11-.48-.27-.66-.47-.19-.2-.33-.43-.44-.69-.1-.26-.16-.54-.16-.84,0-.39,.09-.74,.27-1.06,.18-.32,.42-.58,.74-.77,.32-.19,.67-.29,1.07-.29s.77,.1,1.08,.29c.31,.2,.55,.45,.72,.77,.18,.32,.26,.67,.26,1.05v.12s0,.07,0,.09h-3.57c.03,.3,.11,.56,.25,.79,.14,.23,.33,.41,.55,.55s.47,.2,.74,.2,.53-.07,.77-.21c.24-.14,.41-.32,.51-.54l.47,.13c-.08,.2-.22,.38-.39,.54-.18,.16-.38,.28-.62,.37-.24,.09-.49,.13-.76,.13Zm-1.54-2.35h3.08c-.02-.3-.1-.56-.24-.79-.14-.23-.33-.41-.55-.53-.23-.13-.48-.19-.75-.19s-.52,.06-.74,.19c-.22,.13-.41,.31-.55,.54-.14,.23-.22,.49-.24,.79Z"/>
        </g>
        <g>
          <path class="cls-2" d="M24.79,63.88c-.91,0-1.73-.17-2.46-.51-.73-.34-1.36-.8-1.89-1.39-.53-.58-.93-1.24-1.22-1.97-.28-.73-.42-1.49-.42-2.27s.15-1.57,.45-2.3c.3-.73,.72-1.38,1.26-1.95,.54-.57,1.18-1.02,1.91-1.35s1.54-.5,2.41-.5,1.71,.18,2.44,.53c.73,.35,1.36,.82,1.89,1.41,.53,.59,.93,1.25,1.22,1.98s.42,1.48,.42,2.24c0,.8-.15,1.57-.44,2.29-.29,.73-.71,1.37-1.26,1.95-.54,.57-1.18,1.02-1.91,1.35-.73,.33-1.53,.49-2.41,.49Zm.02-2.48c.53,0,1-.1,1.39-.31,.4-.21,.72-.49,.99-.83s.46-.74,.59-1.17c.13-.44,.2-.88,.2-1.33s-.07-.92-.2-1.35c-.14-.44-.34-.82-.61-1.16-.27-.34-.61-.61-1-.81-.4-.2-.84-.3-1.34-.3-.53,0-.99,.1-1.38,.31-.39,.21-.72,.49-.99,.83-.27,.35-.46,.74-.59,1.17-.13,.44-.2,.88-.2,1.33s.07,.91,.2,1.34c.14,.43,.34,.82,.6,1.16,.27,.35,.6,.62,1,.82,.4,.2,.85,.3,1.36,.3Zm-.75-2.36h2.62l4.3,4.76h-2.62l-4.3-4.76Z"/>
          <path class="cls-2" d="M33.57,63.79v-12.07h2.79v5.2l4.42-5.2h3.13l-4.52,5.39,4.83,6.68h-3.2l-3.4-4.85-1.26,1.29v3.55h-2.79Z"/>
          <path class="cls-2" d="M46.29,63.79v-12.07h2.79v12.07h-2.79Z"/>
          <path class="cls-2" d="M61.76,54.17h-3.67v9.62h-2.79v-9.62h-3.69v-2.45h10.15v2.45Z"/>
        </g>
      </g>
    </g>
  </g>
</svg>